<svg xmlns="http://www.w3.org/2000/svg" viewBox="0 0 1280 480" width="1280" height="480">
  <defs>
    <radialGradient id="glow_yolo" cx="50%" cy="55%" r="65%">
      <stop offset="0%" stop-color="#76b900" stop-opacity="0.20"/>
      <stop offset="100%" stop-color="#0d1117" stop-opacity="0"/>
    </radialGradient>
    <linearGradient id="scan" x1="0" y1="0" x2="0" y2="1">
      <stop offset="0%" stop-color="#38bdf8" stop-opacity="0"/>
      <stop offset="50%" stop-color="#38bdf8" stop-opacity="0.35"/>
      <stop offset="100%" stop-color="#38bdf8" stop-opacity="0"/>
    </linearGradient>
  </defs>

  <rect width="1280" height="480" fill="#0d1117"/>
  <rect width="1280" height="480" fill="url(#glow_yolo)"/>

  <!-- 20x20 detection grid, faint -->
  <g opacity="0.09" stroke="#76b900" stroke-width="1">
    <line x1="0" y1="24" x2="1280" y2="24"/>   <line x1="0" y1="72" x2="1280" y2="72"/>
    <line x1="0" y1="120" x2="1280" y2="120"/> <line x1="0" y1="168" x2="1280" y2="168"/>
    <line x1="0" y1="216" x2="1280" y2="216"/> <line x1="0" y1="264" x2="1280" y2="264"/>
    <line x1="0" y1="312" x2="1280" y2="312"/> <line x1="0" y1="360" x2="1280" y2="360"/>
    <line x1="0" y1="408" x2="1280" y2="408"/> <line x1="0" y1="456" x2="1280" y2="456"/>
    <line x1="64"  y1="0" x2="64"  y2="480"/> <line x1="128" y1="0" x2="128" y2="480"/>
    <line x1="192" y1="0" x2="192" y2="480"/> <line x1="256" y1="0" x2="256" y2="480"/>
    <line x1="320" y1="0" x2="320" y2="480"/> <line x1="384" y1="0" x2="384" y2="480"/>
    <line x1="448" y1="0" x2="448" y2="480"/> <line x1="832" y1="0" x2="832" y2="480"/>
    <line x1="896" y1="0" x2="896" y2="480"/> <line x1="960" y1="0" x2="960" y2="480"/>
    <line x1="1024" y1="0" x2="1024" y2="480"/> <line x1="1088" y1="0" x2="1088" y2="480"/>
    <line x1="1152" y1="0" x2="1152" y2="480"/> <line x1="1216" y1="0" x2="1216" y2="480"/>
  </g>

  <!-- scan band -->
  <rect x="0" y="196" width="1280" height="90" fill="url(#scan)" opacity="0.5"/>

  <!-- everyday-object detections, left -->
  <g fill="none" stroke-width="3">
    <rect x="60"  y="60"  width="140" height="210" rx="3" stroke="#38bdf8" opacity="0.8"/>
    <rect x="228" y="130" width="118" height="118" rx="3" stroke="#4ade80" opacity="0.7"/>
    <rect x="96"  y="308" width="118" height="96"  rx="3" stroke="#f472b6" opacity="0.7"/>
    <rect x="248" y="298" width="150" height="106" rx="3" stroke="#fbbf24" opacity="0.65"/>
  </g>
  <g font-family="'Courier New', monospace" font-size="14" font-weight="bold">
    <rect x="60"  y="38"  width="118" height="22" fill="#38bdf8" opacity="0.9"/><text x="66"  y="54"  fill="#0d1117">person 0.93</text>
    <rect x="228" y="108" width="90"  height="22" fill="#4ade80" opacity="0.9"/><text x="234" y="124" fill="#0d1117">dog 0.88</text>
    <rect x="96"  y="286" width="82"  height="22" fill="#f472b6" opacity="0.9"/><text x="102" y="302" fill="#0d1117">cup 0.76</text>
    <rect x="248" y="276" width="106" height="22" fill="#fbbf24" opacity="0.9"/><text x="254" y="292" fill="#0d1117">laptop 0.81</text>
  </g>

  <!-- everyday-object detections, right -->
  <g fill="none" stroke-width="3">
    <rect x="900"  y="76"  width="130" height="196" rx="3" stroke="#38bdf8" opacity="0.8"/>
    <rect x="1068" y="120" width="140" height="104" rx="3" stroke="#a78bfa" opacity="0.7"/>
    <rect x="936"  y="310" width="120" height="94"  rx="3" stroke="#4ade80" opacity="0.7"/>
    <rect x="1090" y="290" width="120" height="114" rx="3" stroke="#fb923c" opacity="0.65"/>
  </g>
  <g font-family="'Courier New', monospace" font-size="14" font-weight="bold">
    <rect x="900"  y="54"  width="118" height="22" fill="#38bdf8" opacity="0.9"/><text x="906"  y="70"  fill="#0d1117">person 0.90</text>
    <rect x="1068" y="98"  width="90"  height="22" fill="#a78bfa" opacity="0.9"/><text x="1074" y="114" fill="#0d1117">tv 0.72</text>
    <rect x="936"  y="288" width="98"  height="22" fill="#4ade80" opacity="0.9"/><text x="942"  y="304" fill="#0d1117">chair 0.69</text>
    <rect x="1090" y="268" width="106" height="22" fill="#fb923c" opacity="0.9"/><text x="1096" y="284" fill="#0d1117">bottle 0.64</text>
  </g>

  <!-- Text block -->
  <text x="640" y="204" text-anchor="middle" font-family="'Arial Black', Arial, sans-serif" font-size="76" font-weight="900" fill="#76b900" letter-spacing="6">YOLO</text>
  <text x="640" y="252" text-anchor="middle" font-family="Arial, sans-serif" font-size="27" font-weight="300" fill="#ffffff" letter-spacing="5" opacity="0.9">OPENCV DNN + CUDA</text>
  <text x="640" y="292" text-anchor="middle" font-family="'Courier New', monospace" font-size="18" fill="#38bdf8" letter-spacing="2">80 COCO classes &#183; real time</text>
</svg>
