<?xml version="1.0" encoding="UTF-8" standalone="no"?>
<!-- Created with Inkscape (http://www.inkscape.org/) -->

<svg
   width="2558"
   height="2558"
   viewBox="0 0 676.80415 676.80419"
   version="1.1"
   id="svg5"
   inkscape:version="1.1.2 (0a00cf5339, 2022-02-04)"
   sodipodi:docname="safari-pinned-tab.svg"
   xmlns:inkscape="http://www.inkscape.org/namespaces/inkscape"
   xmlns:sodipodi="http://sodipodi.sourceforge.net/DTD/sodipodi-0.dtd"
   xmlns="http://www.w3.org/2000/svg"
   xmlns:svg="http://www.w3.org/2000/svg">
  <sodipodi:namedview
     id="namedview7"
     pagecolor="#ffffff"
     bordercolor="#666666"
     borderopacity="1.0"
     inkscape:pageshadow="2"
     inkscape:pageopacity="0.0"
     inkscape:pagecheckerboard="0"
     inkscape:document-units="mm"
     showgrid="false"
     units="px"
     inkscape:zoom="0.18796998"
     inkscape:cx="1061.3397"
     inkscape:cy="1095.9197"
     inkscape:window-width="1920"
     inkscape:window-height="1043"
     inkscape:window-x="0"
     inkscape:window-y="1080"
     inkscape:window-maximized="1"
     inkscape:current-layer="layer1" />
  <defs
     id="defs2" />
  <g
     inkscape:label="Layer 1"
     inkscape:groupmode="layer"
     id="layer1">
    <path
       style="fill:#000000;stroke-width:1.04756"
       d="m 439.69755,520.40358 c -2.0157,-1.53366 -5.40203,-9.09653 -4.07309,-9.09653 0.49736,0 2.35454,2.357 4.1271,5.23775 3.218,5.22989 3.20249,6.33652 -0.054,3.85878 z m -192.61217,-4.36685 c 1.94616,-2.00791 3.74725,-3.44198 4.00242,-3.18681 0.63391,0.63392 -5.30547,6.83757 -6.54628,6.83757 -0.54703,0 0.59771,-1.64284 2.54386,-3.65076 z m 8.39569,-7.50179 c 0,-0.5644 1.53203,-2.41071 3.40453,-4.10291 l 3.40458,-3.07677 -3.14267,3.66121 c -1.72846,2.01367 -3.26052,3.85999 -3.40456,4.10293 -0.14402,0.24289 -0.26191,-0.0208 -0.26191,-0.58446 z m 175.59354,-3.3303 c -0.46356,-1.33979 -0.56408,-2.7147 -0.22331,-3.05538 1.08591,-1.0859 1.84921,0.51532 1.45124,3.04436 l -0.38502,2.44696 z m -183.97403,-0.794 c -1.93836,-1.07556 -7.38249,-1.47115 -20.95111,-1.52241 -33.9283,-0.12798 -48.01274,-3.4527 -71.2339,-16.81434 -5.47347,-3.1495 -15.37288,-8.22115 -21.99869,-11.27033 -19.96975,-9.19005 -28.28404,-16.07324 -28.28404,-23.41565 0,-2.46022 -0.67116,-3.32164 -3.51325,-4.50915 -4.603217,-1.92334 -6.459572,-4.94657 -8.676024,-14.12976 -1.608888,-6.6657 -1.684963,-9.09294 -0.636087,-20.28914 0.655262,-6.99472 1.946112,-15.31036 2.868548,-18.47923 0.922425,-3.16885 1.910101,-8.11856 2.194782,-10.99933 0.743488,-7.5235 2.493985,-12.81341 6.413041,-19.37981 1.8913,-3.16885 3.43993,-6.08854 3.44142,-6.4882 0.001,-0.39966 2.59539,-5.15512 5.76424,-10.56772 3.16885,-5.41261 5.76157,-10.77811 5.76157,-11.92334 0,-1.14526 1.23087,-3.22506 2.73529,-4.62187 3.26224,-3.02883 11.93051,-14.09091 11.93051,-15.22518 0,-0.4388 1.88561,-3.03404 4.19023,-5.76719 2.30462,-2.73313 4.19023,-5.91862 4.19023,-7.07881 0,-1.1602 2.56118,-5.08252 5.69148,-8.7163 19.01841,-22.07708 30.79229,-26.65494 50.8766,-19.78146 4.89731,1.67601 10.78983,3.38114 13.09445,3.78921 4.81088,0.8518 14.66305,5.06704 15.67676,6.70731 1.03135,1.66874 2.65549,1.32805 2.65549,-0.55704 0,-0.91507 -1.4806,-4.80413 -3.29021,-8.64233 -1.81911,-3.85839 -3.5164,-9.43719 -3.79612,-12.47753 l -0.50587,-5.49895 3.87299,-1.61823 c 2.13017,-0.89003 4.78121,-1.32999 5.89122,-0.97769 1.63486,0.51887 2.01822,0.12976 2.01822,-2.04893 0,-3.17357 0.97107,-3.29048 7.5993,-0.91477 3.52911,1.26491 5.35888,2.64008 6.27918,4.71918 0.71434,1.61378 2.12649,2.93411 3.13815,2.93411 1.01169,0 1.8394,-0.20548 1.8394,-0.45649 0,-1.17846 -9.14859,-10.32292 -12.23741,-12.23192 -1.91177,-1.18154 -3.47593,-2.86692 -3.47593,-3.74528 0,-0.87837 -1.17852,-2.52404 -2.61891,-3.65704 -1.44039,-1.13302 -2.63456,-2.61507 -2.65374,-3.29344 -0.0478,-1.68977 -3.70517,-5.94743 -5.10894,-5.94743 -0.62787,0 -1.14155,-0.51372 -1.14155,-1.14164 0,-1.88299 -5.61666,-7.23881 -7.59138,-7.23881 -1.01015,0 -1.83663,-0.70709 -1.83663,-1.57132 0,-0.86426 -0.4203,-1.57135 -0.93399,-1.57135 -0.51371,0 -1.2298,-1.17848 -1.5913,-2.61888 -0.71184,-2.83612 -2.7125,-3.6088 -2.7125,-1.04756 0,2.9751 -2.82455,1.55968 -7.16892,-3.5925 -2.3948,-2.8401 -4.3542,-5.65194 -4.3542,-6.24848 0,-1.53918 -3.56928,-3.25348 -6.77391,-3.25348 -2.95119,0 -10.61868,-2.8602 -9.81689,-3.66198 0.27051,-0.27052 2.06647,0.0894 3.99102,0.7994 2.71038,1.00014 3.59613,1.00786 3.92907,0.0341 0.30594,-0.8946 1.18437,-0.97009 3.04713,-0.26191 1.43951,0.54731 3.11223,0.9951 3.71714,0.9951 1.36016,0 -1.67777,-4.926 -5.033,-8.16098 -1.3687,-1.31966 -2.48857,-2.8132 -2.48857,-3.31898 0,-0.50583 -2.08738,-3.36505 -4.63858,-6.35386 -2.67562,-3.13462 -4.39325,-6.07358 -4.05883,-6.94502 0.68948,-1.79676 -2.25203,-4.17045 -6.1345,-4.95026 -2.00391,-0.40248 -3.30908,-1.74725 -4.6537,-4.79495 -1.02781,-2.32956 -2.48514,-4.23557 -3.23849,-4.23557 -0.75335,0 -1.36972,-0.43772 -1.36972,-0.97273 0,-0.53501 -0.74078,-1.7135 -1.64617,-2.61888 -1.49652,-1.49652 -1.31591,-1.64618 1.98659,-1.64618 2.86107,0 4.3379,0.80312 6.95221,3.78064 2.13263,2.42893 3.08002,4.39527 2.64981,5.49968 -1.28004,3.28593 -1.02083,3.81612 2.03584,4.16426 3.31951,0.37807 12.11554,6.94247 12.11554,9.04172 0,0.70555 0.97591,2.16601 2.16874,3.24549 1.68909,1.52862 2.02612,2.7229 1.52387,5.40014 -0.6221,3.3161 -0.52302,3.43847 2.80714,3.4663 2.71244,0.0237 4.01313,0.80198 6.07093,3.63761 2.53974,3.49973 5.23778,4.81689 5.23778,2.55709 0,-2.11809 1.86393,0.0609 4.07395,4.76247 1.22217,2.60004 2.87638,4.72736 3.676,4.72736 1.68908,0 2.72564,2.23617 2.72564,5.88011 0,3.03656 2.51215,4.32769 4.77172,2.45242 1.12709,-0.93542 1.93122,-1.00104 2.711,-0.22123 0.77977,0.77978 0.45589,1.31579 -1.09197,1.80706 -3.6213,1.14936 -2.49382,2.65234 1.9897,2.65234 4.44957,0 5.79087,2.1428 2.4956,3.98691 -1.54874,0.86673 -1.53537,1.19132 0.15501,3.77112 1.1033,1.68382 2.45559,2.59023 3.35157,2.24639 1.96869,-0.75546 11.01797,6.66517 10.32625,8.46778 -0.41202,1.0737 0.54261,1.23262 4.30549,0.71688 3.52932,-0.48374 4.63253,-0.33534 4.08558,0.54968 -0.41213,0.66682 -1.89997,1.21237 -3.30637,1.21237 -3.33807,0 -3.29992,2.46791 0.0617,3.99965 1.73411,0.79011 2.61889,2.04227 2.61889,3.70632 0,1.3822 0.65639,3.05782 1.45862,3.72364 0.80226,0.66581 2.03797,2.60913 2.746,4.3185 1.05888,2.55634 1.9,3.10792 4.73943,3.10792 1.8986,0 3.62707,-0.52503 3.84096,-1.16672 0.23904,-0.71719 1.84097,-0.18145 4.15738,1.39059 3.1495,2.13729 3.50102,2.72604 2.14017,3.58442 -1.46534,0.92431 -1.45212,1.38023 0.13215,4.55583 0.96818,1.94078 1.50737,4.32575 1.1982,5.29988 -0.34386,1.08343 0.66842,3.08852 2.60697,5.16373 1.743,1.86592 3.16912,3.76366 3.16912,4.21725 0,0.45358 0.67496,1.0837 1.49993,1.40027 0.97621,0.3746 2.2001,-0.77499 3.50532,-3.2925 2.46833,-4.76086 10.87031,-8.57691 14.25305,-6.47346 2.14035,1.33084 2.40282,1.11478 5.42451,-4.46559 0.85796,-1.58444 1.93032,-2.88078 2.38304,-2.88078 2.34575,0 5.17199,-4.44275 5.79002,-9.1017 0.41905,-3.159 2.01083,-7.13022 4.17544,-10.41699 2.5031,-3.80076 3.66991,-6.9754 4.1018,-11.16001 1.01997,-9.88261 4.76837,-18.04178 11.43067,-24.88114 8.40096,-8.6243 17.3715,-10.67801 26.7694,-6.12857 4.04713,1.95919 4.77486,2.03676 6.3542,0.67713 6.46206,-5.56298 16.56595,-6.59076 23.25854,-2.36592 2.28172,1.4404 4.74723,2.62522 5.47887,2.63293 0.73164,0.006 2.66354,1.06838 4.29309,2.35701 1.62957,1.28865 4.25686,3.37546 5.83842,4.63739 1.88575,1.50465 3.7506,4.86584 5.41761,9.76472 2.57645,7.57142 5.77767,11.29289 11.1844,13.00208 1.29634,0.40979 2.357,1.14817 2.357,1.64083 0,0.49263 1.58337,1.41827 3.5186,2.05694 3.77233,1.24501 16.23961,-0.036 21.94615,-2.25491 3.96594,-1.54213 12.96467,0.64255 19.36449,4.7012 l 4.83315,3.06507 1.82751,-2.46936 c 3.35991,-4.54003 5.06669,-6.13588 6.56249,-6.13588 1.14951,0 0.97229,0.94328 -0.78566,4.1816 -1.24847,2.29986 -2.76912,4.18547 -3.3792,4.19024 -0.61008,0.006 -2.02428,0.685 -3.14266,1.51167 -1.93312,1.42884 -1.82951,1.58883 2.09952,3.24223 2.27311,0.95654 5.04825,1.91546 6.16693,2.1309 1.11868,0.21558 2.83147,1.11342 3.80619,1.99556 0.97471,0.88211 2.2019,1.60384 2.72708,1.60384 0.883,0 26.64045,26.00649 26.64045,26.89804 0,0.21915 2.24937,3.33125 4.99857,6.91572 5.1213,6.6772 8.33502,11.19382 10.19767,14.33203 0.57981,0.97686 1.75833,2.52228 2.61887,3.4342 3.04542,3.22712 17.80182,23.68006 17.80182,24.67399 0,0.55479 0.69037,1.58165 1.53412,2.28191 0.84376,0.70025 3.1659,3.70425 5.16037,6.67551 3.63713,5.4185 5.66467,7.80432 15.71918,18.49675 9.24302,9.82945 11.16186,13.73643 13.89113,28.28405 1.99245,10.61992 2.1914,22.92055 0.47045,29.08478 -1.99027,7.12891 -9.51725,14.71272 -19.60685,19.75488 -4.75279,2.37515 -9.86592,5.28162 -11.36244,6.4588 -2.75431,2.16654 -7.69236,3.82656 -20.99551,7.05797 -11.74452,2.85285 -14.27775,2.90727 -25.64746,0.55125 -5.9224,-1.22724 -12.82748,-2.2727 -15.34466,-2.32321 -3.74228,-0.0751 -4.57664,-0.44961 -4.57664,-2.05412 0,-1.19122 -0.74091,-1.96227 -1.8856,-1.96227 -1.03709,0 -2.35526,-0.46965 -2.92928,-1.04368 -2.37339,-2.3734 -12.99405,-3.26657 -26.24836,-2.20739 -15.08025,1.20512 -16.86911,2.01355 -26.81321,12.11768 -4.86287,4.94114 -5.91462,6.69118 -6.50414,10.82262 -1.62061,11.35676 -2.10879,12.18164 -9.27794,15.67719 -8.1786,3.98771 -20.86216,6.83188 -30.58439,6.85823 -9.51656,0.0268 -12.90855,-1.70515 -17.56856,-8.96544 -1.07899,-1.68104 -4.56693,-4.12733 -8.37211,-5.87185 -3.58743,-1.6447 -7.7348,-4.1192 -9.21638,-5.49896 -1.48155,-1.37972 -5.64372,-4.8084 -9.24925,-7.61929 l -6.55546,-5.11072 -7.23448,0.51764 c -3.97895,0.28477 -7.91208,1.07998 -8.74025,1.7673 -1.03044,0.8552 -3.51549,1.02231 -7.87198,0.52944 -6.59413,-0.74604 -7.46499,-0.25745 -4.79642,2.69131 1.40662,1.5543 1.32496,1.96474 -0.78566,3.94896 l -2.35543,2.21438 v -3.86647 c 0,-4.52666 -1.23126,-4.65411 -8.90272,-0.92157 -5.09944,2.48112 -9.42956,7.93456 -9.42956,11.8758 0,1.92988 -0.56768,2.46399 -2.61889,2.46399 -3.53785,0 -3.31206,2.06451 0.57533,5.2606 l 3.21314,2.64167 -5.0369,5.80968 c -7.97813,9.20214 -11.32562,11.40986 -17.51438,11.55094 -2.93204,0.0668 -4.50605,0.33709 -3.49777,0.60057 3.45973,0.90414 0.98817,4.51568 -3.09028,4.51568 -1.44331,0 -2.40939,0.63006 -2.40939,1.57134 0,1.86438 -0.69931,1.8498 -4.19023,-0.0872 z m 158.94498,-26.21077 c -0.34808,-0.34811 -1.25163,-0.38532 -2.00782,-0.0826 -0.83566,0.33443 -0.58745,0.58264 0.63291,0.63291 1.10431,0.0454 1.72303,-0.20221 1.37491,-0.55021 z m -39.52344,-6.04797 c 0,-0.21766 -0.82496,-1.04246 -1.83324,-1.83322 -1.66148,-1.30303 -1.69855,-1.26597 -0.39553,0.39553 1.36851,1.74497 2.22877,2.29986 2.22877,1.43769 z m -191.17917,-7.98492 c 0,-1.17104 -1.04205,-1.50783 -4.09039,-1.322 -4.61545,0.2812 -5.33629,0.67673 -4.29766,2.3573 1.09781,1.77623 8.38805,0.87643 8.38805,-1.0353 z m 12.45783,-8.44017 c 3.23092,-3.4898 5.87442,-6.91443 5.87442,-7.61032 0,-0.69586 0.87405,-2.90816 1.94234,-4.91616 3.41782,-6.42425 4.73076,-33.18095 2.28672,-46.6008 -0.62961,-3.45695 -1.34605,-7.69956 -1.59213,-9.42801 -0.24617,-1.72846 -1.43657,-7.62099 -2.64552,-13.09446 -1.20895,-5.4735 -2.86027,-13.25161 -3.66958,-17.28471 -0.8093,-4.03309 -2.2061,-10.397 -3.104,-14.14202 -0.89788,-3.74502 -1.87109,-7.8761 -2.16267,-9.18019 -0.44375,-1.98451 -0.99598,-2.25934 -3.38745,-1.68584 -1.57153,0.37685 -3.02828,0.82916 -3.23725,1.00506 -1.35813,1.14343 4.90311,21.1214 7.12251,22.72606 2.91386,2.10677 3.3241,3.63132 1.47481,5.48061 -1.56983,1.56982 -1.61352,2.48477 -0.41677,8.7268 3.33414,17.39013 3.06801,16.65934 5.87109,16.12354 2.19354,-0.41934 2.56546,-0.0929 2.56546,2.25058 0,2.09877 -0.52304,2.74101 -2.23232,2.74101 -2.13084,0 -2.20357,0.34511 -1.60033,7.59479 0.34758,4.17713 0.645,8.92291 0.66095,10.54617 0.0237,2.36101 0.40669,2.83149 1.9172,2.3521 1.0385,-0.32961 2.80625,0.0826 3.92834,0.9156 2.78799,2.07019 0.78613,5.38603 -3.08318,5.10684 -2.68644,-0.1939 -2.73466,-0.0769 -2.80981,6.80913 -0.0422,3.85346 -0.41733,9.39042 -0.83388,12.30435 -0.63185,4.41955 -0.4889,5.288 0.86214,5.23775 0.89075,-0.033 1.61954,0.41119 1.61954,0.98735 0,0.57616 -0.71783,0.95424 -1.59519,0.84021 -1.03105,-0.13393 -2.07277,1.32286 -2.9456,4.11955 -1.64182,5.26054 -5.03819,10.22982 -6.99185,10.22982 -1.7896,0 -2.94858,1.74637 -2.08559,3.14267 1.15939,1.87595 2.30714,1.1405 8.2676,-5.29748 z m 34.05123,1.57366 c -1.36696,-0.73159 -2.90852,-1.06862 -3.42571,-0.74898 -0.51718,0.31963 0.17816,1.17971 1.54504,1.91129 1.36696,0.73158 2.90852,1.06861 3.4257,0.74898 0.5172,-0.31963 -0.17816,-1.17974 -1.54503,-1.91129 z m -45.57175,-0.45295 c 7.38862,-6.97416 9.937,-10.15262 10.43941,-13.02058 0.31122,-1.77651 1.09148,-6.29412 1.73389,-10.03914 0.74949,-4.36927 0.91524,-12.55656 0.46261,-22.84913 -0.83685,-19.02826 -1.39748,-20.10071 -10.50798,-20.10071 -5.35169,0 -5.55245,0.1161 -11.84939,6.84747 -3.52298,3.76607 -6.40543,7.55151 -6.40543,8.41202 0,0.86052 -1.13609,4.26374 -2.52461,7.56274 -3.60978,8.57647 -4.63572,21.72447 -2.19407,28.11788 1.45058,3.79829 1.55971,4.99061 0.51577,5.63582 -0.98565,0.60915 -0.44827,2.03784 2.1024,5.58961 2.96256,4.12525 4.01043,4.82465 7.73937,5.16544 2.37212,0.21678 5.20611,0.47655 6.2978,0.57721 1.09167,0.10063 2.97726,-0.7537 4.19023,-1.89863 z m -11.27164,-4.2797 c -1.59376,-1.25367 -2.76016,-3.21961 -2.76016,-4.65219 0,-1.36458 -0.43963,-2.75276 -0.97695,-3.08484 -0.53735,-0.3321 -0.93683,-2.01647 -0.88772,-3.74302 0.049,-1.72659 -0.19598,-3.42445 -0.54448,-3.77297 -0.34854,-0.34855 0.0716,-1.33913 0.93377,-2.20125 1.16704,-1.16705 1.38817,-2.76337 0.86557,-6.24841 -0.58076,-3.87268 -0.3041,-5.21902 1.60229,-7.79756 1.79374,-2.42615 2.036,-3.43983 1.0935,-4.57547 -1.12694,-1.35791 -0.69226,-3.96399 1.74539,-10.46457 1.05573,-2.81533 6.34121,-10.38643 7.9663,-11.41122 5.05226,-3.18595 12.57575,7.29824 11.94736,16.64902 -0.58632,8.72494 -2.78484,20.56334 -5.1554,27.76026 -1.23353,3.74501 -2.26747,8.1809 -2.29764,9.85751 -0.0452,2.51281 -0.69903,3.28104 -3.72129,4.37243 -5.19544,1.87616 -6.6837,1.77185 -9.81054,-0.68772 z m 65.16846,0.37985 c 0.72368,-1.35226 0.8212,-2.51569 0.24082,-2.87437 -0.53625,-0.33139 -1.27638,0.34709 -1.64478,1.50777 -0.36835,1.16067 -1.0091,2.11032 -1.42382,2.11032 -0.41472,0 -0.82542,0.94754 -0.91263,2.10565 -0.12888,1.71138 0.0927,1.85443 1.18294,0.76404 0.73788,-0.73789 1.88872,-2.3639 2.55742,-3.61341 z m -17.66189,-4.10123 c 0.009,-0.64817 -1.16249,-1.17849 -2.60287,-1.17849 -1.44039,0 -2.61889,0.41246 -2.61889,0.91661 0,0.50413 0.70709,0.91661 1.57135,0.91661 0.86423,0 1.57854,0.82495 1.58735,1.83323 0.0149,1.56665 0.16362,1.60475 1.03153,0.2619 0.55853,-0.86423 1.02271,-2.10166 1.03153,-2.74983 z m 13.17217,1.2295 c 1.92152,-1.43665 1.86056,-1.50869 -1.10817,-1.30944 -2.53835,0.17045 -3.20609,-0.24171 -3.47744,-2.14611 -0.37682,-2.64496 -1.26737,-2.9558 -3.13049,-1.09271 -0.98737,0.98741 -0.63172,1.78225 1.62373,3.6288 3.46238,2.8347 3.51928,2.84328 6.09237,0.91946 z m 106.26536,-0.57477 c 0,-0.57616 -0.4714,-1.04756 -1.04754,-1.04756 -0.57616,0 -1.04756,0.4714 -1.04756,1.04756 0,0.57613 0.4714,1.04753 1.04756,1.04753 0.57614,0 1.04754,-0.4714 1.04754,-1.04753 z m 160.63738,-7.47265 c -3.04473,-1.19829 -3.50381,-1.04567 -3.50381,1.16485 0,1.85083 0.29101,1.94012 2.71815,0.83418 2.43911,-1.11135 2.51976,-1.31654 0.78566,-1.99903 z m -238.48855,-0.0567 c -0.33442,-0.83567 -0.58264,-0.58745 -0.63291,0.63287 -0.0454,1.10432 0.20222,1.72303 0.55021,1.37495 0.34808,-0.34811 0.38529,-1.25163 0.0826,-2.00782 z m -45.48324,-3.25453 c 0.19421,-0.58227 1.28005,-1.12699 2.41323,-1.21046 1.13316,-0.0834 2.64126,-0.51087 3.35131,-0.94969 1.57518,-0.97351 1.73144,-6.9596 0.18173,-6.9596 -0.61016,0 -0.87696,0.37605 -0.5929,0.83569 0.28417,0.45962 0.0764,1.52028 -0.46193,2.35701 -0.76405,1.18793 -1.16448,1.23386 -1.82734,0.20964 -0.61284,-0.94699 -1.49542,-0.43722 -3.17402,1.83322 -2.6108,3.53131 -4.3496,4.0528 -4.3736,1.3117 -0.0149,-1.56669 -0.16361,-1.60476 -1.03149,-0.26191 -1.43956,2.22754 -1.28705,3.14267 0.52375,3.14267 0.9213,0 1.58512,0.97505 1.60467,2.35699 0.0321,2.27042 0.0885,2.2842 1.53354,0.37523 0.82515,-1.08996 1.65906,-2.4582 1.85314,-3.04049 z m 173.50866,2.01033 c 0.65759,-0.79234 3.07232,-1.74069 5.36607,-2.10752 2.29373,-0.36676 4.17045,-1.13269 4.17045,-1.70206 0,-0.56933 -0.45483,-1.03515 -1.01072,-1.03515 -1.50387,0 -3.31147,-3.90293 -3.40985,-7.36237 -0.0475,-1.67257 -0.48657,-2.79377 -0.97561,-2.49155 -0.48903,0.30226 -0.88917,0.0356 -0.88917,-0.5927 0,-1.57016 2.76126,-2.49458 4.94654,-1.65601 1.54691,0.5936 1.5842,0.83341 0.26191,1.68338 -1.35401,0.87041 -1.35041,1.11697 0.0297,2.02274 0.86423,0.56734 2.16057,1.03874 2.88078,1.04757 1.26865,0.0149 1.78281,1.85522 1.50864,5.3979 -0.1087,1.40537 0.47656,1.5758 3.2386,0.94291 1.85421,-0.42487 5.24996,-1.78607 7.54603,-3.02486 2.2961,-1.2388 4.65311,-2.27231 5.2378,-2.29669 0.58467,-0.0237 2.71297,-3.43593 4.72951,-7.58126 2.01654,-4.14533 4.25569,-8.16596 4.9759,-8.93475 0.72019,-0.76877 1.30944,-1.53652 1.30944,-1.70607 0,-1.02826 -16.69993,3.52138 -20.95112,5.70779 -0.86426,0.4445 -1.45907,1.8021 -1.32182,3.01693 0.20222,1.79035 -0.29398,2.189 -2.61888,2.10437 -1.57765,-0.0573 -4.04692,-0.44726 -5.48732,-0.86628 -2.64525,-0.76957 -8.38047,0.54478 -8.38047,1.92052 0,0.40967 -0.6905,1.6599 -1.53442,2.77831 -1.49208,1.97736 -1.60201,1.95037 -3.98722,-0.97921 l -2.45286,-3.01265 -3.54479,1.83307 c -1.94965,1.00822 -4.36741,2.8353 -5.37283,4.06023 -1.80876,2.20363 -1.84416,2.20541 -3.35464,0.17074 -1.48664,-2.00269 -1.63684,-1.9616 -5.7408,1.57131 -2.31784,1.99533 -4.25416,4.20499 -4.30292,4.91038 -0.11819,1.71118 6.14656,4.95008 8.94334,4.62367 1.23312,-0.14401 2.5012,0.4658 2.84791,1.36931 0.84315,2.19716 15.54348,2.35662 17.34319,0.18797 z m -152.83485,-0.0689 c 0,-0.25419 -0.4714,-0.75332 -1.04756,-1.10939 -0.57613,-0.3561 -1.04753,-0.14818 -1.04753,0.46196 0,0.61016 0.4714,1.10936 1.04753,1.10936 0.57616,0 1.04756,-0.20787 1.04756,-0.46193 z m 2.09306,-4.51396 c -0.001,-1.28886 -0.93467,-1.89846 -3.14269,-2.05293 -1.72731,-0.12086 -3.14059,0.2328 -3.14059,0.78566 0,0.55297 0.91498,1.0054 2.0333,1.0054 1.1183,0 2.3246,0.4714 2.68071,1.04753 0.96985,1.56927 1.57158,1.26801 1.56927,-0.78566 z m 52.11802,-3.61864 c 3.601,-1.84664 6.54724,-3.73245 6.54724,-4.19063 0,-1.47313 -1.90836,-0.89666 -5.8204,1.75812 -2.10009,1.42516 -5.53868,2.89979 -7.64132,3.277 -5.83136,1.04607 -7.68804,2.44219 -3.29919,2.48083 2.11998,0.0178 6.42798,-1.38391 10.21367,-3.32532 z m -153.87406,-3.62579 c 3.41982,-4.61592 4.46347,-7.16413 5.5274,-13.49592 0.72136,-4.29306 1.6252,-7.80557 2.00854,-7.80557 1.15778,0 0.36927,-27.5619 -0.8691,-30.37916 -0.74584,-1.69679 -1.17457,-2.01288 -1.2176,-0.89776 -0.0365,0.94663 -0.75168,1.98413 -1.58929,2.30554 -1.15053,0.44153 -1.50328,2.45387 -1.44267,8.23064 0.11131,10.60639 -2.71972,30.66825 -4.769,33.79586 -0.9314,1.42147 -1.69345,3.09158 -1.69345,3.71133 0,2.45726 -4.65661,7.32734 -7.00613,7.32734 -2.32689,0 -3.11781,1.04999 -1.79064,2.37716 0.34716,0.3472 2.43005,0.6064 4.62867,0.57608 3.59907,-0.0496 4.41756,-0.62224 8.21327,-5.74554 z m 141.04149,2.77795 c 0,-0.9791 -0.77758,-1.42281 -2.09511,-1.19549 -2.675,0.46154 -2.99427,0.80255 -2.10233,2.24573 1.01249,1.63822 4.19744,0.84137 4.19744,-1.05024 z m 78.64546,-1.49743 c 0.92505,-3.68571 -0.18114,-4.77355 -4.8545,-4.77355 -3.29353,0 -4.1284,0.38545 -4.1284,1.90607 0,1.11889 1.40601,2.57683 3.40454,3.53026 4.70175,2.24304 4.85355,2.22502 5.57836,-0.66278 z m -118.9764,-0.42095 c 0,-1.77683 -3.9486,-4.54347 -4.7149,-3.30357 -0.40299,0.652 0.13956,1.84622 1.20542,2.6538 2.22631,1.68664 3.50948,1.9242 3.50948,0.64977 z m 69.72422,-0.65283 c 1.11838,-0.84591 1.53847,-1.553 0.9335,-1.57135 -0.60497,-0.0178 -1.54777,0.39818 -2.09512,0.92555 -0.54733,0.52738 -2.17368,1.17026 -3.61407,1.42867 l -2.61888,0.46982 2.68056,0.14284 c 1.4743,0.0784 3.59562,-0.54948 4.71401,-1.39538 z m -32.58189,-2.72656 c -1.38887,-2.24722 7.79787,-3.42487 12.21966,-1.56644 1.01724,0.42754 2.43462,-0.0237 3.5348,-1.12293 1.91842,-1.91838 11.23244,-5.52348 14.42297,-5.58254 1.01609,-0.0178 2.75746,-0.60253 3.86973,-1.29715 1.6656,-1.04016 2.4022,-0.91916 4.17601,0.68616 1.78526,1.61561 2.15371,1.67441 2.15371,0.34365 0,-2.87603 -2.41289,-3.90976 -6.84985,-2.93462 -2.28223,0.5016 -8.86348,1.46712 -14.62505,2.14561 -5.76157,0.67848 -11.21902,1.63037 -12.12765,2.11534 -0.90861,0.48495 -3.02993,1.06364 -4.714,1.28599 -2.69759,0.35616 -3.10139,0.87435 -3.39332,4.35509 -0.22122,2.6358 0.0461,3.71754 0.80277,3.24992 0.62376,-0.38552 0.86236,-1.14066 0.53022,-1.67808 z m 241.93775,-2.3463 c 1.14656,-0.8384 2.09071,-3.26109 2.42432,-6.22102 0.51182,-4.5407 0.40552,-4.81098 -1.67768,-4.2662 -1.45803,0.38128 -2.22409,1.41578 -2.22409,3.00348 0,3.0874 -2.55898,5.64986 -6.41161,6.42041 -1.65904,0.33176 -3.0164,1.01572 -3.0164,1.51988 0,1.43983 8.81679,1.07072 10.90546,-0.45655 z M 359.69854,422.7016 c 1.42285,-0.93229 3.43183,-1.37221 4.58899,-1.00495 1.13206,0.3593 2.36143,0.16272 2.73203,-0.4369 1.04373,-1.68881 9.52484,-1.32722 11.0161,0.46962 1.69749,2.04537 3.15225,1.05525 3.15225,-2.14539 0,-1.60877 -0.60081,-2.55706 -1.62007,-2.55706 -0.89101,0 -2.42308,-1.39918 -3.40451,-3.10929 -2.31682,-4.03679 -5.53266,-3.81063 -10.34454,0.72755 -5.03821,4.75166 -5.91728,4.43738 -5.05824,-1.80852 0.88072,-6.40357 -0.39079,-6.78995 -5.17089,-1.57131 -3.9702,4.33442 -6.57818,4.69411 -7.49683,1.03393 -0.75713,-3.01672 0.89688,-5.5065 4.59124,-6.91108 3.39216,-1.28969 2.38503,-3.41561 -1.96135,-4.14016 -4.23557,-0.7061 -8.29442,-3.07273 -8.29442,-4.83628 0,-0.69035 2.1271,-1.57417 4.72689,-1.964 2.59978,-0.38989 4.93844,-1.05119 5.19702,-1.46956 0.25864,-0.41836 -1.16142,-2.34206 -3.15555,-4.27485 -1.99414,-1.93278 -3.62571,-3.91778 -3.62571,-4.41112 0,-0.49335 2.8296,-0.79486 6.28797,-0.67006 3.45834,0.12472 6.53717,-0.0237 6.8418,-0.32697 0.30463,-0.30464 -0.62418,-1.32577 -2.06404,-2.2692 -1.60564,-1.05207 -2.38506,-2.3221 -2.01572,-3.28457 0.80829,-2.10637 -3.10807,-2.10857 -4.85578,-0.003 -0.71504,0.86158 -3.12976,2.11469 -5.36604,2.78469 -4.0663,1.21831 -4.98769,2.28837 -3.01841,3.50547 1.15803,0.7157 1.40565,5.70461 0.41172,8.29478 -0.34972,0.91136 -1.32429,1.65701 -2.16571,1.65701 -1.06509,0 -1.32299,0.65177 -0.84894,2.14537 0.37451,1.17998 0.14579,2.79022 -0.50834,3.57837 -0.92665,1.11655 -0.73756,1.57634 0.85635,2.08221 1.1251,0.35708 3.30679,3.22697 4.8482,6.3775 1.91937,3.923 4.26327,6.7332 7.43756,8.91718 2.80944,1.93293 4.63496,3.9943 4.63496,5.23372 0,2.4753 0.39967,2.51762 3.65201,0.38659 z m 132.53042,0.61064 c 0,-0.57617 -1.06063,-1.05398 -2.35701,-1.06184 -1.29634,-0.009 -3.53548,-0.23549 -4.97588,-0.50597 -1.44039,-0.27051 -0.7333,0.17133 1.57132,0.98134 5.21566,1.83349 5.76157,1.88905 5.76157,0.58647 z m 7.33291,-4.6238 c 0,-0.23844 -2.96318,-2.79146 -6.58487,-5.67334 -7.16616,-5.70228 -7.47659,-6.17041 -12.27516,-18.51069 -3.48448,-8.96088 -5.64746,-12.08857 -7.21342,-10.43065 -0.57261,0.60619 0.45607,4.65525 2.60156,10.24017 5.01831,13.06327 15.29895,24.55218 22.16242,24.76708 0.72021,0.0237 1.30947,-0.15412 1.30947,-0.39257 z m -107.70668,-4.54676 c -0.37085,-3.61047 2.30998,-9.67677 4.28731,-9.7015 0.70538,-0.009 1.97091,-0.45145 2.81221,-0.9836 1.31937,-0.83451 1.28279,-1.2404 -0.26575,-2.95162 -2.61883,-2.89372 -1.37618,-11.10435 2.01711,-13.3277 3.21853,-2.1089 3.15968,-3.67218 -0.13837,-3.67218 -2.15571,0 -2.62102,-0.50952 -2.63091,-2.88078 -0.009,-2.3347 -0.82643,-3.27112 -4.30829,-4.93995 l -4.29623,-2.05917 -2.84979,3.18943 c -1.56737,1.75418 -3.68865,3.51135 -4.71395,3.9048 -3.15522,1.21076 0.11878,3.83324 4.7854,3.83324 2.23409,0 4.06197,0.4714 4.06197,1.04754 0,0.57616 1.02497,1.04756 2.27772,1.04756 h 2.27772 l -2.28732,2.43471 c -1.258,1.33911 -1.96384,2.75818 -1.56852,3.1535 0.39533,0.39533 -0.18975,1.4044 -1.29985,2.24236 -1.95493,1.47551 -1.92067,1.60333 1.08656,4.05024 l 3.10521,2.52665 -5.46222,0.75123 c -5.97825,0.82226 -6.06959,0.93361 -3.89087,4.7449 2.10516,3.68256 1.99704,5.63293 -0.26191,4.72558 -1.00828,-0.405 -2.42248,-0.97727 -3.14269,-1.27172 -0.72018,-0.29428 -1.30943,-0.0149 -1.30943,0.6243 0,0.63778 0.70711,1.15962 1.57134,1.15962 1.50034,0 1.75248,0.43132 1.99036,3.40455 0.0983,1.22754 5.12071,2.83847 7.43765,2.38557 0.57616,-0.11255 0.89811,-1.65951 0.71549,-3.43756 z m -10.99923,-0.45386 c -0.33442,-0.83566 -0.58263,-0.58745 -0.63291,0.63289 -0.0455,1.10431 0.20222,1.72302 0.55021,1.37495 0.34807,-0.34812 0.38529,-1.25163 0.0825,-2.00784 z m 23.1049,-1.9832 c 2.44237,-1.10583 6.05718,-2.01061 8.03288,-2.01061 4.96524,0 6.90623,-0.92398 6.90623,-3.28764 0,-1.10873 0.82495,-2.27956 1.83322,-2.6018 9.33869,-2.9846 12.56397,-11.33743 8.84948,-22.91839 -1.80513,-5.62798 -2.35332,-6.34011 -5.24151,-6.80911 -1.77404,-0.28804 -4.8834,-1.99864 -6.9097,-3.80129 -3.17985,-2.82881 -4.8014,-3.39105 -11.8453,-4.10701 -10.09023,-1.0256 -11.84758,-0.805 -14.2899,1.79381 -2.24735,2.39133 -2.43631,2.09314 3.09331,4.88054 2.62634,1.32387 5.24102,1.91951 6.72393,1.5317 2.07319,-0.54213 2.30719,-0.34309 1.60717,1.36707 -2.29762,5.6131 -2.25813,5.66807 4.07203,5.66807 3.72474,0 5.70204,0.39405 5.29357,1.05496 -1.59401,2.57917 2.78296,1.90918 7.25805,-1.11103 2.70232,-1.82375 5.00418,-3.14649 5.11524,-2.93937 0.11107,0.20697 1.05703,1.9145 2.10214,3.7942 1.8586,3.34285 1.8507,3.51672 -0.36038,7.94396 -1.88768,3.77976 -2.76266,4.52634 -5.30472,4.52634 -2.4682,0 -3.04419,-0.45079 -3.04419,-2.38248 0,-1.31037 -0.42743,-2.64661 -0.94982,-2.96948 -1.15752,-0.71541 -12.66842,8.4875 -12.66842,10.12832 0,0.64319 0.80621,2.06027 1.79156,3.14908 1.54554,1.70779 1.5815,2.11252 0.26191,2.94725 -0.84134,0.53215 -2.57125,0.97477 -3.84429,0.9836 -2.47819,0.0178 -7.6372,4.84501 -7.6372,7.14693 0,1.60656 2.36865,1.09491 9.15471,-1.97762 z M 208.26736,407.337 c 0.0404,-0.43212 -0.39777,-0.78566 -0.97393,-0.78566 -0.57615,0 -1.01443,1.29634 -0.97392,2.88079 0.0653,2.55271 0.17609,2.64219 0.97392,0.78565 0.49516,-1.15233 0.93342,-2.44867 0.97393,-2.88078 z m 21.02476,-0.84748 c 0,-0.54217 -0.4714,-0.98574 -1.04756,-0.98574 -0.57613,0 -1.04753,0.73493 -1.04753,1.63317 0,0.89822 0.4714,1.3418 1.04753,0.9857 0.57616,-0.35606 1.04756,-1.091 1.04756,-1.63313 z m 29.85539,1.10938 c 0.35607,-0.57616 -0.11522,-1.04756 -1.04756,-1.04756 -0.93223,0 -1.40363,0.4714 -1.04757,1.04756 0.3561,0.57613 0.82751,1.04754 1.04757,1.04754 0.22003,0 0.69147,-0.47141 1.04756,-1.04754 z m 251.90983,-6.03193 c -2.06303,-6.56351 -4.51268,-11.77656 -5.53388,-11.77656 -0.53242,0 -0.67421,1.29637 -0.31509,2.88078 0.35916,1.58444 0.96321,4.53071 1.34235,6.54723 0.85184,4.53064 4.88623,10.46834 5.39838,7.94514 0.18707,-0.9222 -0.2141,-3.44068 -0.89176,-5.59659 z m -195.19068,1.30554 c 0.16955,-2.92318 -1.80606,-3.45884 -3.8175,-1.03518 -1.01408,1.22184 -1.02556,1.90696 -0.0516,3.0804 1.74105,2.09789 3.68872,1.06834 3.86917,-2.04522 z m 119.79421,1.5837 c 0,-0.57616 -0.4714,-1.04756 -1.04756,-1.04756 -0.57613,0 -1.04754,0.4714 -1.04754,1.04756 0,0.57617 0.47141,1.04757 1.04754,1.04757 0.57616,0 1.04756,-0.4714 1.04756,-1.04757 z m -211.17808,-3.71254 c -0.29485,-1.12735 -1.69033,-2.59446 -3.10111,-3.26026 -3.22747,-1.52311 -3.20615,-1.30607 0.25953,2.6436 3.11846,3.55386 3.63912,3.66688 2.84147,0.61666 z m -10.904,0.6317 c 0,-0.54217 -0.4714,-1.27708 -1.04757,-1.63317 -0.57616,-0.35607 -1.04756,0.0876 -1.04756,0.98573 0,0.89823 0.4714,1.63317 1.04756,1.63317 0.57617,0 1.04757,-0.44358 1.04757,-0.98573 z m 4.8231,-1.87323 c -1.06485,-1.06487 -1.94348,0.53833 -1.06977,1.952 0.65999,1.06788 0.90675,1.06871 1.26156,0.003 0.24261,-0.72785 0.1562,-1.60814 -0.19182,-1.95625 z m 245.79989,-7.09283 c -2.44823,-8.03893 -4.97088,-8.61521 -4.97088,-1.13561 0,5.77083 -0.7855,6.42673 -6.42909,5.36797 -2.94089,-0.55173 -3.54836,-1.05588 -2.96761,-2.46304 1.54562,-3.74525 1.74116,-5.43576 0.62871,-5.43576 -1.41812,0 -4.57622,7.26619 -3.91124,8.99907 0.26457,0.68927 3.37983,1.58964 6.92295,2.00088 3.54312,0.4112 7.70196,1.08979 9.24184,1.50791 3.67564,0.99809 3.96228,-0.70809 1.48532,-8.84142 z m 31.16987,8.31862 c 0,-0.89823 -0.4714,-1.3418 -1.04756,-0.98573 -0.57617,0.35609 -1.04757,1.091 -1.04757,1.63317 0,0.54215 0.4714,0.98573 1.04757,0.98573 0.57616,0 1.04756,-0.73494 1.04756,-1.63317 z m -236.74792,-0.0846 c 0,-0.36859 -0.82156,-1.27092 -1.82571,-2.00518 -1.00415,-0.73423 -1.82909,-1.9647 -1.83322,-2.73436 -0.006,-1.33106 -1.47816,-2.53547 -1.67023,-1.36752 -0.31301,1.90338 2.35023,6.77723 3.70333,6.77723 0.89422,0 1.62583,-0.30157 1.62583,-0.67017 z m 257.35135,-3.42529 c -0.42603,-2.13017 -0.14996,-3.22427 0.91662,-3.63357 0.87075,-0.33415 1.52621,0.0208 1.52621,0.82453 0,0.77562 0.64428,1.9449 1.43172,2.59845 1.16096,0.96349 1.54167,0.36865 2.01298,-3.14537 0.56973,-4.24757 -0.82514,-9.3095 -2.5653,-9.3095 -0.48367,0 -0.8794,1.03708 -0.8794,2.30462 0,1.79248 -0.27943,2.02526 -1.2571,1.04754 -0.69138,-0.69138 -1.5701,-1.25707 -1.9527,-1.25707 -1.2652,0 -2.0348,9.55306 -0.93515,11.60777 1.5793,2.95096 2.39979,2.45087 1.70212,-1.03743 z m -309.0547,-3.76115 c 0.0457,-3.16887 -0.23428,-5.76157 -0.62239,-5.76157 -1.19643,0 -5.51609,6.40833 -4.8014,7.12302 0.37014,0.37014 1.04836,0.0656 1.5072,-0.67683 0.58804,-0.95147 1.22698,-0.40159 2.16524,1.86357 0.73205,1.76736 1.40686,3.21336 1.49954,3.21336 0.0927,0 0.20609,-2.59269 0.25181,-5.76155 z m 179.4483,4.12152 c -1.12883,-1.36015 -1.05099,-2.16497 0.456,-4.71615 2.37744,-4.02467 1.48122,-5.19393 -3.86537,-5.04298 -3.96155,0.11198 -4.08463,0.18944 -1.26041,0.79373 3.29261,0.70462 4.88799,3.97319 2.62265,5.37325 -1.7137,1.05912 -0.29457,5.23218 1.77923,5.23218 1.35956,0 1.40387,-0.2714 0.26785,-1.64003 z m -160.21921,-3.65958 c 0,-1.18629 -0.4714,-1.86559 -1.04757,-1.5095 -0.57616,0.35607 -1.04756,1.3267 -1.04756,2.15692 0,0.83027 0.4714,1.50953 1.04756,1.50953 0.57617,0 1.04757,-0.97063 1.04757,-2.15695 z m 266.49777,1.2801 c 0.66067,-1.06897 -2.24414,-5.4085 -3.62033,-5.4085 -1.12133,0 -1.35583,4.52096 -0.28982,5.58697 0.97588,0.97591 3.26114,0.87158 3.91011,-0.17847 z m -237.16617,-5.4085 c 0,-0.57613 -0.4714,-1.04754 -1.04757,-1.04754 -0.57616,0 -1.04756,0.47141 -1.04756,1.04754 0,0.57616 0.4714,1.04756 1.04756,1.04756 0.57617,0 1.04757,-0.4714 1.04757,-1.04756 z m -43.43319,-3.87829 c -0.71385,-2.84417 -0.77867,-2.86849 -2.25701,-0.84677 -1.3495,1.84555 -1.3188,2.23012 0.2708,3.39248 2.35042,1.71864 2.88465,1.03391 1.98621,-2.54571 z m 316.84557,2.76893 c 0,-0.61016 -0.49302,-0.80467 -1.09564,-0.43223 -0.69446,0.4292 -0.94895,-0.41122 -0.69497,-2.29519 0.22034,-1.63476 1.06698,-3.03582 1.88132,-3.11338 0.81435,-0.0775 1.92846,-0.19539 2.47581,-0.26191 0.54737,-0.0665 0.4295,-0.6865 -0.26189,-1.37788 -1.95376,-1.95372 -1.51422,-2.58398 1.802,-2.58398 2.13263,0 3.4553,0.74025 4.36724,2.4443 3.35726,6.27312 4.23945,-0.54392 0.91397,-7.06247 -2.10318,-4.12254 -4.83983,-4.79233 -3.5983,-0.88064 0.50519,1.59177 0.12383,2.00697 -1.84299,2.00697 -1.36402,0 -3.06531,0.5853 -3.78068,1.30067 -1.0359,1.0359 -1.48122,1.00854 -2.18751,-0.13422 -1.02181,-1.65333 -3.21615,-0.67977 -3.21615,1.42695 0,0.78221 -0.58925,1.63375 -1.30947,1.89228 -1.72186,0.61812 3.08865,10.18009 5.12148,10.18009 0.78417,0 1.42575,-0.49923 1.42575,-1.10936 z m -104.55578,-4.34755 c -1.17915,-1.17918 -4.39013,0.0846 -4.39013,1.72791 0,2.3318 1.37212,2.7124 3.34428,0.9276 1.07815,-0.9757 1.54367,-2.15769 1.04585,-2.65551 z m 86.83337,-5.35165 c -1.6617,-1.66173 -1.3856,-2.7996 0.69964,-2.88334 1.5676,-0.063 1.52964,-0.204 -0.26191,-0.97391 -3.11811,-1.33991 -3.65445,-1.22868 -3.78796,0.78565 -0.11581,1.74592 -0.14431,1.74592 -0.6006,0 -0.26339,-1.00828 -1.20203,-1.83322 -2.08565,-1.83322 -0.88365,0 -1.37222,0.58923 -1.0857,1.30944 0.28656,0.72018 1.35435,3.43075 2.37298,6.02345 3.02492,7.69907 3.98412,8.30666 5.00044,3.16739 0.58181,-2.94192 0.49623,-4.84802 -0.25121,-5.59546 z m -330.55202,1.30648 c 2.34441,-4.53362 1.85202,-24.01977 -0.60697,-24.01977 -0.45682,0 -0.81036,4.53189 -0.78565,10.07091 0.0457,10.2809 -0.54965,11.88885 -4.40724,11.90041 -0.86423,0.002 -3.22122,-2.28909 -5.23778,-5.09258 -2.01656,-2.8035 -3.94783,-4.93649 -4.29173,-4.74 -1.23374,0.70502 0.87466,10.02253 2.89493,12.79335 1.13412,1.5555 2.36674,3.64727 2.73911,4.64839 0.62914,1.69134 0.94211,1.66385 4.41968,-0.38793 2.05841,-1.2145 4.43247,-3.54226 5.27565,-5.17278 z m 48.6731,6.35937 c 0,-0.57615 -0.9428,-1.04755 -2.09509,-1.04755 -1.15233,0 -2.09513,0.4714 -2.09513,1.04755 0,0.57616 0.9428,1.04756 2.09513,1.04756 1.15229,0 2.09509,-0.4714 2.09509,-1.04756 z m -25.14135,-6.71245 c 0,-1.02677 -1.45384,-0.64279 -3.53596,0.93387 -1.21526,0.92026 -1.70925,2.15318 -1.2951,3.2324 0.57664,1.50272 0.9581,1.37779 2.75028,-0.90055 1.14442,-1.45492 2.08078,-2.9245 2.08078,-3.26572 z m 299.60133,4.75948 c 0,-2.44939 -9.69167,-20.04571 -11.04072,-20.04571 -2.17205,0 -1.95367,0.8473 1.8899,7.33288 1.87795,3.16885 4.34096,7.52932 5.47329,9.68992 1.92066,3.66469 3.67753,5.10882 3.67753,3.02291 z m -180.36887,-8.4185 c 0.18411,-1.20958 0.8541,-2.1992 1.48886,-2.1992 0.63475,0 2.04942,-0.81027 3.14372,-1.80059 1.18051,-1.06835 3.34412,-1.70034 5.32028,-1.55409 5.85571,0.43342 6.39986,-0.80514 3.36683,-7.66333 -4.04041,-9.13608 -4.51892,-9.49913 -8.05494,-6.11143 -1.63931,1.5706 -2.98059,3.61593 -2.98059,4.54522 0,2.26502 -2.06754,4.20377 -4.48298,4.20377 -1.63715,0 -1.85398,0.52288 -1.28711,3.10394 0.59796,2.72239 0.34671,3.18806 -2.04388,3.78804 -2.02278,0.50769 -2.5713,1.17026 -2.12722,2.56947 0.32911,1.03693 0.10778,2.18855 -0.49177,2.5591 -0.5996,0.3706 -1.09018,1.8723 -1.09018,3.3372 v 2.66344 l 4.45213,-2.62116 c 2.58503,-1.52191 4.59249,-3.54345 4.78685,-4.82038 z m 47.3291,4.6099 c 0,-1.02853 1.02952,-1.57131 2.98033,-1.57131 1.66714,0 3.83047,-0.93942 4.90978,-2.13207 1.06122,-1.17264 2.54476,-1.89596 3.29677,-1.60739 1.06017,0.40681 4.5265,-4.11015 4.5265,-5.89844 0,-0.17252 -3.65338,-0.31628 -8.11858,-0.31918 -5.28776,-0.003 -8.48382,0.45548 -9.16614,1.31615 -0.78411,0.98912 -1.96782,1.05629 -4.70708,0.26724 -4.87386,-1.40407 -4.9998,-1.38102 -5.77369,1.05731 -0.76476,2.40945 1.248,9.41157 2.70535,9.41157 0.53146,0 0.96632,-1.45349 0.96632,-3.22997 0,-3.99956 1.81216,-3.65115 4.714,0.90633 2.28211,3.5842 3.66644,4.26376 3.66644,1.79985 z m -143.12247,-0.31191 c 0.28417,-0.45961 0.0764,-1.52027 -0.46196,-2.357 -0.85153,-1.32393 -1.11227,-1.31746 -2.00996,0.0501 -0.56735,0.86423 -1.03876,1.92489 -1.04757,2.357 -0.0208,1.04976 2.86513,1.00876 3.51949,-0.0502 z M 101.8485,374.65416 c 0.38936,-1.01457 0.079,-1.32479 -0.93546,-0.93546 -1.656963,0.63581 -2.088506,2.45344 -0.58252,2.45344 0.51452,0 1.1976,-0.68309 1.51798,-1.51798 z m 441.66051,-2.209 c -1.86019,-2.24138 -2.44665,-1.07625 -0.90667,1.80127 0.82762,1.54637 1.47223,1.95111 1.75528,1.10205 0.24586,-0.73803 -0.13601,-2.04452 -0.84861,-2.90332 z m -197.41427,1.63189 c 0.35609,-0.57616 0.17609,-1.04756 -0.40014,-1.04756 -0.57616,0 -1.3389,0.4714 -1.69496,1.04756 -0.3561,0.57617 -0.17609,1.04757 0.40013,1.04757 0.57617,0 1.3389,-0.4714 1.69497,-1.04757 z m -89.89809,-3.33909 c -0.33439,-0.83566 -0.58264,-0.58745 -0.63288,0.63291 -0.0455,1.10428 0.20222,1.72299 0.55018,1.37491 0.34811,-0.3481 0.38532,-1.25162 0.0826,-2.00782 z m 29.64022,-1.70076 c 4.67481,-2.27035 6.71462,-8.37231 5.84187,-17.47576 -0.50728,-5.29131 -1.14625,-6.82283 -4.06385,-9.7404 -1.90405,-1.90408 -4.37415,-3.48412 -5.48909,-3.51123 -3.62975,-0.0882 -15.12162,2.44603 -15.12162,3.33475 0,0.47603 2.12131,2.60376 4.71401,4.72827 5.21635,4.2744 5.83581,5.70549 2.46966,5.70549 -2.10858,0 -2.206,0.3668 -1.6106,6.06348 0.34859,3.33491 1.38359,7.85804 2.30002,10.0514 1.49114,3.56878 1.96319,3.91567 4.49138,3.30057 1.55381,-0.37801 4.46452,-1.48347 6.46822,-2.45657 z m 243.08378,1.34065 c 1.10075,-1.32633 0.98693,-1.86469 -0.65741,-3.10934 -2.56418,-1.9409 -3.48524,-1.93814 -4.23385,0.0119 -0.60196,1.56864 1.24298,4.70065 2.76896,4.70065 0.43506,0 1.39009,-0.72184 2.1223,-1.60407 z m -422.19791,-7.1001 c 0.0119,-1.67106 -2.13507,0.51922 -3.71681,3.79472 l -1.61199,3.33815 2.66179,-3.14269 c 1.464,-1.72846 2.66416,-3.52403 2.66701,-3.99018 z m 91.14268,4.11846 c 0,-0.21766 -0.82495,-1.04249 -1.83322,-1.83326 -1.6615,-1.30299 -1.69856,-1.26597 -0.39553,0.39553 1.3685,1.74497 2.22875,2.2999 2.22875,1.43773 z m 46.45846,-1.14229 c 0.77281,-2.01392 -1.39338,-3.33244 -2.50906,-1.52722 -0.92205,1.49191 -0.38556,3.065 1.0453,3.065 0.48052,0 1.1392,-0.692 1.46376,-1.53778 z m -22.95348,-2.05139 c 1.62419,0.40765 2.60456,0.0692 3.03287,-1.04691 0.87769,-2.28719 2.44143,-2.06211 3.09726,0.44587 0.30135,1.15231 1.06342,2.09512 1.69352,2.09512 1.90273,0 1.28716,-4.75407 -0.94949,-7.33292 -1.67264,-1.92857 -2.09509,-2.0665 -2.09509,-0.68407 0,0.95239 -0.66784,1.73164 -1.48405,1.73164 -0.81622,0 -1.65098,0.5008 -1.85502,1.11291 -0.26072,0.78237 -1.25818,0.7756 -3.35809,-0.0237 -2.80866,-1.06784 -2.94902,-0.99352 -2.34953,1.24408 0.35069,1.30887 0.69875,3.08689 0.77343,3.95113 0.098,1.13409 0.26904,1.06104 0.61503,-0.2625 0.34559,-1.32263 1.14829,-1.66596 2.87916,-1.23153 z m -55.97925,-3.68188 c 0,-2.84679 0.4714,-5.46733 1.04756,-5.8234 0.57614,-0.35609 1.04754,-1.38445 1.04754,-2.28521 0,-1.33165 -0.2916,-1.39581 -1.5598,-0.34326 -0.85787,0.71198 -1.32158,1.67994 -1.03046,2.15101 0.29102,0.47105 0.0501,1.15257 -0.53533,1.51446 -1.37839,0.8519 -1.39401,9.96236 -0.0178,9.96236 0.57616,0 1.04755,-2.32921 1.04755,-5.17596 z m 219.4632,4.1284 c -0.35609,-0.57617 -1.091,-1.04756 -1.63317,-1.04756 -0.54213,0 -0.9857,0.47139 -0.9857,1.04756 0,0.57616 0.73491,1.04756 1.63314,1.04756 0.89826,0 1.34184,-0.4714 0.98573,-1.04756 z m 29.85539,-0.62493 c 0,-0.34371 -1.88559,-2.76708 -4.19022,-5.38528 -2.30463,-2.6182 -4.19023,-5.11883 -4.19023,-5.55694 0,-1.2426 -7.21796,-5.19379 -9.48791,-5.19379 -1.11935,0 -2.03523,-0.70708 -2.03523,-1.57131 0,-0.86425 -0.4714,-1.57134 -1.04756,-1.57134 -0.57616,0 -1.04756,0.69571 -1.04756,1.54602 0,0.85029 -0.94102,3.08947 -2.09118,4.97587 -3.15965,5.18229 -2.64219,11.81573 0.705,9.0378 1.07884,-0.89535 1.86651,-0.79121 3.23905,0.4282 2.57933,2.29155 20.14584,5.16099 20.14584,3.29077 z m 134.61108,-1.4702 c 0.3561,-0.57616 0.14818,-1.04756 -0.46195,-1.04756 -0.61017,0 -1.10939,0.4714 -1.10939,1.04756 0,0.57617 0.20786,1.04757 0.46196,1.04757 0.25418,0 0.75329,-0.4714 1.10938,-1.04757 z m -302.55218,-2.29153 c -0.33439,-0.83566 -0.58264,-0.58745 -0.63289,0.63291 -0.0454,1.10428 0.20223,1.72299 0.55019,1.37491 0.3481,-0.3481 0.38532,-1.25161 0.0826,-2.00782 z m -137.81093,-1.11304 c 1.13883,-2.13723 1.09344,-2.22293 -0.48691,-0.91928 -0.95857,0.79073 -1.74287,1.8514 -1.74287,2.35701 0,1.60011 0.93091,0.99989 2.22978,-1.43773 z m 274.02789,0.90854 c 1.22539,-1.22544 -0.24232,-1.46312 -5.70661,-0.92425 -3.23386,0.31889 -5.21757,0.96552 -4.83941,1.57744 0.65443,1.05888 9.37399,0.51879 10.54602,-0.65319 z m -17.51105,-1.95896 c 4.21947,-1.66357 0.44969,-2.19439 -4.72773,-0.66565 -2.91315,0.86012 -4.16234,1.66832 -3.35949,2.17348 1.2719,0.80034 3.09518,0.46039 8.08722,-1.50783 z m 123.27201,-4.58379 c -1.42952,-2.80678 -3.77611,-7.16428 -5.21459,-9.68336 -2.43918,-4.2715 -2.69235,-4.43633 -3.75746,-2.44618 -0.95073,1.77648 -0.41953,3.33334 3.1714,9.29413 5.59151,9.28171 6.25833,10.08017 7.43521,8.90325 0.5878,-0.58777 -0.0508,-2.95822 -1.63456,-6.06784 z m -248.97886,3.80099 c -0.61669,-1.15229 -1.64914,-2.09509 -2.29432,-2.09509 -0.64519,0 -0.31984,0.9428 0.72298,2.09509 1.04284,1.15233 2.07528,2.09513 2.29434,2.09513 0.21915,0 -0.10631,-0.9428 -0.723,-2.09513 z m 258.11055,0.43868 c 0.34959,-0.91107 -0.0149,-2.58447 -0.80882,-3.71868 -1.39957,-1.99814 -1.46566,-1.97774 -2.12695,0.65705 -1.03739,4.13334 1.50649,6.78628 2.93577,3.06163 z m -113.85543,-2.06443 c 1.71857,-0.36159 2.48062,-1.49123 2.97225,-4.40613 0.3636,-2.15594 0.88741,-4.74485 1.16403,-5.75313 0.27645,-1.00828 0.0547,-1.83322 -0.49309,-1.83322 -1.13795,0 -2.39281,3.48271 -2.64209,7.33291 -0.15501,2.39317 -0.73427,2.69454 -6.72169,3.49665 -3.60367,0.48277 -6.34946,1.20571 -6.10175,1.6065 0.4518,0.73102 7.49576,0.46674 11.82234,-0.44358 z m 125.57331,-1.27998 c -1.80386,-1.72771 -1.82615,-1.70538 -0.50109,0.5011 0.76279,1.27015 1.61235,2.08387 1.88794,1.80828 0.27557,-0.27557 -0.34849,-1.31479 -1.38685,-2.30938 z m -397.66247,-2.85582 c 0,-0.57615 -0.45697,-0.34046 -1.0155,0.52376 -0.55849,0.86426 -1.01546,2.04274 -1.01546,2.61891 0,0.57616 0.45697,0.34045 1.01546,-0.52378 0.55853,-0.86424 1.0155,-2.04275 1.0155,-2.61889 z m 101.64513,2.79349 c 0,-1.36402 -1.24533,-2.27115 -2.25833,-1.64507 -1.0834,0.66958 -0.14937,2.51804 1.27258,2.51804 0.54217,0 0.98575,-0.39283 0.98575,-0.87297 z m -37.2966,-8.6681 c -3.47875,-3.63105 -4.26904,-3.71113 -7.41897,-0.75192 -3.50402,3.29187 -3.0115,4.57901 1.75213,4.57901 2.60957,0 4.8695,0.6981 6.02344,1.86063 1.76846,1.78165 1.86167,1.76472 2.19638,-0.39877 0.21469,-1.38797 -0.76985,-3.42778 -2.55298,-5.28895 z m 45.67705,5.35084 c 0,-0.57617 -0.97063,-1.04757 -2.15695,-1.04757 -1.18633,0 -1.86559,0.4714 -1.5095,1.04757 0.35607,0.57612 1.32669,1.04753 2.15693,1.04753 0.83023,0 1.50952,-0.47141 1.50952,-1.04753 z m 160.05104,-3.52005 c 2.29072,-3.88251 5.60127,-14.26476 4.90681,-15.38839 -1.70156,-2.75316 -18.61886,-1.26211 -19.77187,1.74262 -0.50359,1.31235 0.3773,1.44331 5.67572,0.84386 7.19957,-0.81455 8.48103,0.66263 2.20589,2.54271 -2.23626,0.67 -4.63486,1.90369 -5.33022,2.74155 -1.42201,1.71344 0.22181,2.33783 7.82486,2.97219 l 4.19023,0.34959 -3.40457,1.46872 c -2.41657,1.04251 -3.40457,2.16206 -3.40457,3.85795 0,3.91133 4.56093,3.18571 7.10772,-1.1308 z m -263.54267,-5.6461 c 1.66474,-2.44867 2.56733,-4.4521 2.00578,-4.4521 -1.05425,0 -7.48487,10.53934 -7.42824,12.17441 0.0178,0.50602 0.56372,-0.0237 1.21377,-1.17507 0.65004,-1.1523 2.54396,-4.09856 4.20869,-6.54724 z m 190.94853,0.77094 c -2.10547,-2.19761 -2.63188,-3.54586 -2.10323,-5.38662 0.59938,-2.08702 0.38,-1.98392 -1.46264,0.68735 -2.93664,4.25732 -2.7909,5.00835 1.74675,9.00123 3.87226,3.40739 3.93335,3.42227 4.27792,1.04302 0.22181,-1.53247 -0.67576,-3.48387 -2.4588,-5.34498 z m 204.24301,3.08503 c -0.98509,-1.59393 -2.55899,-1.10701 -1.90773,0.59015 0.33035,0.86092 1.03037,1.29975 1.55555,0.97516 0.52518,-0.32459 0.68366,-1.02898 0.35218,-1.56531 z M 218.30007,344.7225 c 0.36972,-1.16494 -0.12829,-4.21437 -1.10684,-6.77647 -1.62179,-4.24668 -1.97589,-4.55618 -4.0062,-3.50161 -3.25051,1.68838 -3.25916,1.7178 -1.17959,4.01568 2.18965,2.41954 1.3751,4.10574 -1.02223,2.11615 -2.31885,-1.92447 -1.95634,0.28685 0.57447,3.50416 2.58396,3.28496 5.80421,3.59171 6.74039,0.64209 z m 29.84809,-1.08643 c 0,-0.54216 -0.47141,-0.98574 -1.04758,-0.98574 -0.57612,0 -1.04752,0.73494 -1.04752,1.63316 0,0.89824 0.4714,1.34181 1.04752,0.98575 0.57617,-0.3561 1.04758,-1.09101 1.04758,-1.63317 z m -50.28274,0.0617 c 0,-0.57615 -0.49923,-1.04756 -1.10939,-1.04756 -0.61016,0 -0.81802,0.47141 -0.46195,1.04756 0.35609,0.57617 0.85531,1.04757 1.10938,1.04757 0.25418,0 0.46196,-0.4714 0.46196,-1.04757 z m 6.80911,-1.04756 c 1.20281,-1.94614 -0.52316,-3.16077 -2.62565,-1.84777 -1.45112,0.90625 -1.65467,1.47452 -0.73712,2.05763 1.71556,1.09029 2.59311,1.03553 3.36277,-0.20995 z m 245.33451,-2.06748 c 2.41799,-0.39936 5.0107,-1.23087 5.76157,-1.84783 0.75085,-0.61693 2.43914,-1.28473 3.75171,-1.48398 2.32072,-0.35227 2.25409,-0.58436 -2.41606,-8.41576 -2.64141,-4.42942 -7.13675,-10.50085 -9.98962,-13.49207 -5.54174,-5.81045 -7.17361,-6.16129 -14.85178,-3.19314 l -2.87227,1.11033 6.2768,6.10402 c 5.41911,5.26991 6.27684,6.62877 6.27684,9.9441 0,2.8328 0.57889,4.1499 2.20689,5.0212 2.16812,1.16034 2.1451,1.24625 -1.30944,4.88899 l -3.51637,3.7079 3.1427,-0.80882 c 1.72845,-0.44485 5.12103,-1.13558 7.53903,-1.53494 z m -42.63221,-2.12274 c 0,-0.57614 -0.20786,-1.04754 -0.46195,-1.04754 -0.2542,0 -0.75329,0.4714 -1.10936,1.04754 -0.35611,0.57616 -0.14818,1.04756 0.46192,1.04756 0.61016,0 1.10939,-0.4714 1.10939,-1.04756 z m 72.28145,-1.74117 c 0,-0.89132 -4.03575,-7.77391 -8.80253,-15.01189 -2.05474,-3.11995 -3.8893,-6.13278 -4.07676,-6.69518 -0.18737,-0.56238 -1.17772,-0.70134 -2.2006,-0.30884 -1.67976,0.6446 -1.48434,1.39786 2.01919,7.78327 5.99216,10.92102 8.97284,14.92627 11.10805,14.92627 1.07396,0 1.95265,-0.31215 1.95265,-0.69363 z m -52.37786,-4.93968 c 0,-4.91409 -5.63302,-6.27541 -7.14895,-1.72764 -0.34928,1.04778 0.35012,1.23066 2.81842,0.73702 3.43464,-0.68695 4.15079,0.0992 2.02591,2.22418 -0.97773,0.97773 -0.86132,1.25706 0.52378,1.25706 1.17674,0 1.78084,-0.84486 1.78084,-2.49062 z m 57.09187,0.5701 c 0,-1.89466 -2.05038,-1.54878 -2.45705,0.41451 -0.22627,1.09231 0.1663,1.5712 1.04757,1.27748 0.7752,-0.25834 1.40948,-1.01979 1.40948,-1.69199 z m -355.65825,-7.05228 c 3.46387,-4.35891 6.29794,-8.46014 6.29794,-9.11381 0,-0.65369 -2.05353,1.61634 -4.56343,5.04451 -2.50987,3.42817 -5.57395,7.13105 -6.80909,8.22862 -2.06924,1.83877 -2.95687,3.76598 -1.73456,3.76598 0.28121,0 3.34527,-3.56637 6.80914,-7.9253 z m 72.29404,7.02303 c 0,-0.49629 -1.17848,-0.67701 -2.61888,-0.40167 -1.44039,0.27526 -2.61891,0.68137 -2.61891,0.90229 0,0.22093 1.17852,0.40165 2.61891,0.40165 1.4404,0 2.61888,-0.40601 2.61888,-0.90227 z m 131.60662,-4.55912 c 0.28001,-0.45317 -0.1752,-0.82393 -1.01185,-0.82393 -0.83661,0 -1.79242,-0.70713 -2.12407,-1.57135 -0.33163,-0.86423 -1.26731,-1.57134 -2.07925,-1.57134 -2.74627,0 -9.15401,3.19881 -8.50647,4.24652 0.74314,1.20242 12.95953,0.95322 13.72164,-0.28001 z m 22.38816,-1.34359 c -1.35104,-1.43814 -2.72958,-2.34035 -3.06337,-2.00495 -0.33384,0.33541 0.50592,1.51205 1.86609,2.61476 3.47601,2.81807 4.11286,2.49368 1.19728,-0.60981 z m -172.8508,-2.01356 c 0,-2.63277 -1.23296,-4.7997 -2.73098,-4.7997 -0.80259,0 -1.45925,-0.49923 -1.45925,-1.10939 0,-0.61013 -0.43844,-0.8384 -0.97434,-0.50718 -1.67258,1.0337 -0.49317,6.15107 1.60766,6.97549 2.9697,1.16535 3.55691,1.07303 3.55691,-0.55922 z m 181.99185,-1.98249 c -0.70159,-2.10481 -2.85959,-1.94989 -2.85959,0.20549 0,1.50649 0.48331,1.96406 1.61563,1.52957 0.88857,-0.34098 1.44834,-1.12169 1.24396,-1.73491 z m -11.08608,-11.21351 c -2.99104,-6.5962 -7.35206,-11.23807 -13.76792,-14.65461 -2.59376,-1.38122 -2.5902,-1.35963 0.44808,2.71075 1.68446,2.2567 4.74665,5.98867 6.80483,8.29329 2.05819,2.30464 4.92066,6.75869 6.36105,9.89791 2.19173,4.77669 2.6691,5.28673 2.92664,3.1268 0.16926,-1.41951 -1.07846,-5.63786 -2.77268,-9.37414 z M 139.9879,310.22761 c 3.35152,-4.03699 4.33938,-5.99078 2.43349,-4.81285 -1.68196,1.03951 -7.62755,8.95242 -6.71176,8.93262 0.48055,-0.0119 2.40576,-1.86425 4.27827,-4.11977 z m 253.7195,1.94789 c -0.50745,-0.94818 -0.66314,-1.98346 -0.34601,-2.30062 0.84574,-0.84574 -2.69944,-2.4629 -7.16615,-3.26896 -3.73447,-0.67395 -3.96374,-0.54334 -5.4997,3.13272 -0.88151,2.10976 -1.60276,3.93022 -1.60276,4.04544 0,0.11521 3.49588,0.18826 7.76864,0.16243 6.87876,-0.0415 7.66293,-0.24439 6.84598,-1.77105 z m 68.68975,-2.03756 c 0.56258,-0.91029 -8.19282,-15.09735 -10.01041,-16.22069 -0.32383,-0.20015 -1.20231,0.0149 -1.95222,0.47878 -1.02169,0.63146 0.0297,2.84608 4.1929,8.83514 5.59781,8.052 6.54278,8.89203 7.76973,6.90677 z m -207.98473,-1.61413 c 5.08872,-0.57572 6.33923,-1.0702 6.08218,-2.40499 -0.44711,-2.32164 -4.08536,-2.81959 -5.58788,-0.76479 -1.1204,1.53224 -1.59454,1.54162 -5.04513,0.0997 -2.11069,-0.88187 -3.80853,-1.13267 -3.80853,-0.56253 0,0.5658 -0.70712,0.75739 -1.57136,0.42576 -1.86113,-0.71418 -1.97714,0.0481 -0.44342,2.91395 0.62032,1.15913 1.76701,1.86224 2.54815,1.5625 0.78115,-0.29977 4.30286,-0.87115 7.82599,-1.26974 z m 19.13899,-3.32882 c 2.92027,-0.5013 3.85016,-2.67664 1.70966,-3.99956 -2.94677,-1.82119 -8.21722,-2.28122 -9.42753,-0.82287 -1.86233,2.24399 0.57307,7.14306 3.02822,6.09161 0.99488,-0.42607 3.10523,-0.99721 4.68965,-1.26918 z M 155.31936,288.70115 c 5.86915,-6.04964 10.30424,-10.99935 9.85577,-10.99935 -0.96306,0 -13.77705,12.43405 -18.62255,18.07036 -6.60504,7.68301 -1.74055,3.75945 8.76678,-7.07101 z m 157.93448,8.38045 c 0,-0.54736 -0.50677,-1.16408 -1.12615,-1.37055 -0.61936,-0.20637 -1.1261,0.41029 -1.1261,1.37055 0,0.96027 0.50674,1.57702 1.1261,1.37055 0.61938,-0.20637 1.12615,-0.82318 1.12615,-1.37055 z m 13.46109,-1.02065 c 0,-0.2732 -1.4142,-1.22818 -3.14267,-2.12201 -1.78962,-0.92546 -3.14266,-1.16254 -3.14266,-0.55069 0,0.59095 0.49923,1.07447 1.10939,1.07447 0.61017,0 0.81802,0.4714 0.46193,1.04754 -0.36718,0.59415 0.51292,1.04756 2.03331,1.04756 1.47439,0 2.6807,-0.2236 2.6807,-0.49687 z m 19.90359,-3.21091 c 0,-0.31081 -1.64989,-3.01507 -3.66645,-6.00946 -2.01655,-2.9944 -3.66644,-6.00373 -3.66644,-6.68741 0,-1.93472 -5.24037,-7.68917 -7.00224,-7.68917 -1.20025,0 -0.78777,1.40063 1.72232,5.84822 1.81528,3.21652 3.43875,7.38853 3.60764,9.27114 0.16897,1.88263 0.64215,3.96493 1.05155,4.62736 0.72734,1.17685 7.95362,1.75771 7.95362,0.63932 z m 119.19647,-1.44271 c 0.16421,-0.0481 -0.22687,-1.06921 -0.86901,-2.26931 -1.10865,-2.07149 -1.26847,-2.09095 -3.15484,-0.38378 -1.09288,0.98904 -1.78242,2.12934 -1.53233,2.53401 0.35669,0.57713 3.74051,0.64966 5.55618,0.11908 z m -106.88957,-5.43609 c 0.23845,-4.89288 -1.08364,-8.92169 -4.25045,-12.95204 -0.46626,-0.59345 -1.74971,-2.60118 -2.85206,-4.46166 -3.75643,-6.33973 -6.9425,-1.51654 -4.72981,7.16007 1.20066,4.70801 8.53044,15.60845 10.48648,15.59491 0.59721,-0.003 1.20282,-2.4077 1.34584,-5.34128 z m 90.00189,1.75275 c -0.3465,-0.90295 -1.11617,-1.64175 -1.71043,-1.64175 -1.20521,0 -1.48053,3.44095 -0.36461,4.55689 1.15003,1.15001 2.76458,-1.1182 2.07504,-2.91514 z m -68.24681,-5.04628 c -1.84825,-16.96907 -5.36447,-26.21244 -12.96936,-34.09363 -4.8185,-4.99359 -12.16199,-9.49367 -13.42737,-8.22833 -1.0995,1.0995 -0.68436,12.27168 0.50001,13.45605 0.69452,0.69453 1.26275,2.11128 1.26275,3.14836 0,1.39006 0.81295,1.8856 3.0934,1.8856 8.0071,0 11.73077,5.20944 9.62266,13.46217 -1.02526,4.01369 -0.95917,5.82678 0.37591,10.31065 1.58624,5.32761 1.71185,5.44889 6.04898,5.84044 2.43599,0.22004 4.82893,0.48225 5.31761,0.58287 0.48872,0.10064 0.56764,-2.76322 0.17549,-6.36418 z m -3.68281,1.24761 c 0,-0.61016 0.4714,-0.81806 1.04757,-0.46195 0.57612,0.35609 1.04752,0.85531 1.04752,1.10938 0,0.25418 -0.4714,0.46196 -1.04752,0.46196 -0.57617,0 -1.04757,-0.49923 -1.04757,-1.10939 z m -14.2598,-31.92135 c -0.95556,-1.4584 -1.47257,-2.9164 -1.14893,-3.24004 0.32364,-0.32364 1.3424,0.86958 2.26391,2.65158 2.01988,3.90601 1.30573,4.2829 -1.11498,0.58846 z m -3.89787,-5.3797 c -0.38411,-0.38411 -0.68405,-1.44476 -0.6665,-2.35701 0.0268,-1.36214 0.23043,-1.31689 1.14357,0.2533 1.12797,1.93974 0.80098,3.38187 -0.47707,2.10382 z m 41.20393,41.71547 c 0,-1.4012 -3.76126,-4.43242 -4.53716,-3.65653 -0.38534,0.38538 -0.70064,1.5649 -0.70064,2.6212 0,1.35018 0.77773,1.92053 2.61888,1.92053 1.4404,0 2.61892,-0.39836 2.61892,-0.8852 z m 70.18632,-1.67189 c 0,-0.25419 -0.4714,-0.75329 -1.04757,-1.10936 -0.57616,-0.3561 -1.04756,-0.14817 -1.04756,0.46192 0,0.61018 0.4714,1.1094 1.04756,1.1094 0.57617,0 1.04757,-0.20787 1.04757,-0.46196 z m -78.1132,-2.56716 c 0.31751,-0.51371 1.08404,-6.99546 1.7034,-14.40392 1.24999,-14.95113 2.70096,-19.03943 8.04954,-22.68033 6.60101,-4.49347 3.20297,-6.71458 -4.04256,-2.6424 -3.60486,2.02606 -4.33308,3.1399 -6.33518,9.68992 -1.24419,4.07038 -3.15064,9.36231 -4.23655,11.75981 -2.91977,6.44624 -1.05169,19.21094 2.81146,19.21094 0.80997,0 1.73243,-0.4203 2.04989,-0.93402 z m 23.0696,-0.0377 c 0.33029,-0.53447 -0.56978,-2.30222 -2.00019,-3.92835 l -2.60077,-2.95662 -0.0332,3.92835 c -0.0268,3.20151 0.34313,3.92835 2.0002,3.92835 1.11833,0 2.30355,-0.43729 2.63387,-0.97176 z m -13.12882,-1.38528 c -0.0445,-0.72022 -0.91429,-3.66647 -1.93254,-6.54723 -1.6675,-4.71751 -1.93021,-4.99221 -2.64487,-2.7656 -0.51701,1.61081 -0.15322,3.89204 1.04413,6.54722 1.77775,3.9424 3.69952,5.44661 3.53328,2.76561 z m 39.53278,-1.64743 c -0.95675,-1.05715 -1.73953,-3.12362 -1.73953,-4.59213 0,-3.34064 -2.80243,-6.07967 -3.73471,-3.65017 -0.94874,2.47236 5.16429,12.21389 6.70051,10.67767 0.28239,-0.28239 -0.26963,-1.37818 -1.22627,-2.43537 z m -156.64333,-2.5428 c 1.13883,-2.13726 1.09342,-2.22296 -0.48692,-0.91931 -0.95857,0.79077 -1.74284,1.85139 -1.74284,2.357 0,1.60016 0.9309,0.99993 2.22976,-1.43769 z m 122.11963,-3.48572 c -0.60199,-5.83259 -3.20403,-11.45983 -4.8334,-10.4528 -0.91011,0.56247 -0.64865,3.19587 1.12391,11.31961 0.72273,3.31237 1.62509,4.97592 2.69912,4.97592 1.33205,0 1.50823,-1.01885 1.01037,-5.84273 z m -237.46566,1.10472 c 1.10704,-1.33391 1.04225,-1.48719 -0.3955,-0.93546 -0.94574,0.3629 -1.71952,1.08079 -1.71952,1.59531 0,1.34712 0.60642,1.15791 2.11502,-0.65985 z m 138.21003,-9.9278 c 0.60235,0 1.09516,-0.48227 1.09516,-1.0717 0,-1.11652 -5.1879,1.7958 -6.53119,3.66638 -1.72158,2.39742 -0.63689,2.38305 1.76958,-0.0237 1.4142,-1.4142 3.0641,-2.57127 3.66645,-2.57127 z m 58.71082,1.19524 c 0,-3.45478 -1.74815,-5.42882 -4.66163,-5.26395 -1.89146,0.10688 -1.91821,0.18083 -0.22449,0.61791 1.46839,0.37899 1.76738,1.11711 1.26436,3.12134 -0.68497,2.72914 1.07188,5.97184 2.69276,4.9701 0.51086,-0.31575 0.92884,-1.86616 0.92884,-3.4454 z m 67.31589,0.27853 c 0.89717,-0.89716 -8.76918,-13.04843 -9.84911,-12.38102 -1.08016,0.6676 0.41038,3.71313 2.77961,5.67944 0.93369,0.77488 2.38576,2.73956 3.22679,4.36596 1.50015,2.90095 2.60552,3.57282 3.84271,2.33562 z m 5.73874,-3.24454 c -0.97398,-0.97398 -2.06502,-1.47674 -2.4245,-1.11726 -1.03096,1.03103 0.55175,2.88816 2.46138,2.88816 1.59908,0 1.5962,-0.13779 -0.0368,-1.7709 z m -92.95823,-4.10301 c 0,-1.81342 -4.88308,-4.67202 -6.75423,-3.95401 -2.1111,0.8101 -2.06175,1.20599 0.64229,5.15224 2.10573,3.07312 2.40638,3.1926 4.19023,1.66524 1.05695,-0.90497 1.92171,-2.19354 1.92171,-2.86347 z m 44.52838,-14.02149 c 0.71628,-2.28382 0.61443,-2.44107 -0.81337,-1.25611 -2.66936,2.21538 -6.0051,10.36387 -5.97383,14.59284 0.0268,3.77676 0.15204,3.6364 2.99877,-3.39313 1.63332,-4.03312 3.33811,-8.50773 3.78843,-9.9436 z m -6.81632,2.97607 c 1.44039,-2.92313 2.76269,-5.69321 2.93845,-6.15574 0.17579,-0.46252 -0.64921,-1.14843 -1.83322,-1.52425 -1.18404,-0.37577 -2.1528,-1.32015 -2.1528,-2.09856 0,-1.49123 -6.16728,-5.77639 -8.31355,-5.77639 -0.75985,0 -0.37198,1.24304 0.98067,3.14265 3.20389,4.49944 1.8428,3.88278 -3.72988,-1.68988 -3.3809,-3.3809 -5.16355,-4.50152 -5.93454,-3.73053 -0.77099,0.77099 0.21351,2.59659 3.2775,6.07743 2.40877,2.73651 5.38942,6.77226 6.6237,8.96835 1.23425,2.19609 2.62874,3.99288 3.09878,3.99288 0.47006,0 0.85466,0.94279 0.85466,2.09512 0,3.44516 1.41545,2.33007 4.19023,-3.30108 z m -40.23835,-0.62198 c -1.14434,-1.14434 -1.92905,0.67555 -1.10746,2.56843 0.77907,1.79485 0.83554,1.79322 1.26959,-0.0369 0.24973,-1.05338 0.17697,-2.19261 -0.16213,-2.53161 z m -28.93251,-0.79094 c 0,-0.57617 -0.45694,-0.34048 -1.01547,0.52375 -0.55852,0.86426 -1.01546,2.04275 -1.01546,2.61891 0,0.57616 0.45694,0.34044 1.01546,-0.52378 0.55853,-0.86423 1.01547,-2.04276 1.01547,-2.61888 z m 104.97985,1.34436 c -0.75169,-0.75169 -1.2396,-0.81354 -1.2396,-0.15709 0,1.39825 1.23886,2.63712 1.93799,1.93799 0.29768,-0.29769 -0.0178,-1.09906 -0.69839,-1.78085 z m -100.77356,-8.53145 c -0.0178,-1.25011 -1.40325,0.4908 -3.22088,4.04439 -0.84217,1.64653 -0.61034,1.56561 1.08266,-0.37792 1.18484,-1.36019 2.14703,-3.0101 2.13822,-3.66647 z m 51.34632,4.20676 c 0,-0.19865 -1.06065,-1.25943 -2.35699,-2.357 l -2.35701,-1.99559 1.99559,2.357 c 1.87536,2.21501 2.71841,2.8339 2.71841,1.99559 z m 23.78904,-14.04248 c 1.07931,-3.37725 1.01371,-4.11204 -0.46766,-5.23779 -0.9477,-0.72022 -3.35599,-1.30944 -5.3517,-1.30944 -3.44896,0 -3.54276,0.0947 -1.8949,1.91569 0.95356,1.05364 1.73369,2.37196 1.73369,2.92962 0,1.11269 3.34794,5.59416 4.19581,5.61637 0.291,0.006 1.09427,-1.75388 1.78476,-3.91445 z m -66.17341,-16.76093 1.85398,-2.88076 -2.25729,1.99556 c -1.2415,1.09757 -2.25726,2.39395 -2.25726,2.88079 0,1.53654 0.74889,0.97481 2.66057,-1.99559 z m 8.34235,-8.46416 c -0.32203,-0.32207 -1.63311,0.50572 -2.91348,1.83955 l -2.3279,2.42509 2.91348,-1.83951 c 1.60241,-1.01176 2.64997,-2.10306 2.3279,-2.42513 z m 29.39282,-2.03393 c -0.35115,-0.35113 -1.45219,0.21351 -2.44674,1.2548 -1.7287,1.80992 -1.70061,1.83803 0.63846,0.63844 1.34566,-0.69013 2.15941,-1.5421 1.80828,-1.89324 z m 56.76519,286.22973 c -2.03067,-2.71544 -2.27071,-3.62867 -0.95384,-3.62867 0.87156,0 3.66694,5.24497 3.08817,5.79435 -0.1657,0.15709 -1.12609,-0.81737 -2.13433,-2.16568 z M 286.90777,475.29471 c 0,-0.21766 0.82495,-1.04249 1.83322,-1.83322 1.6615,-1.30304 1.69853,-1.266 0.39553,0.3955 -1.3685,1.74497 -2.22875,2.2999 -2.22875,1.43772 z m 6.28536,-5.60099 c 0,-0.45786 0.9428,-1.42124 2.09509,-2.14086 1.16059,-0.72477 2.09513,-0.85362 2.09513,-0.28892 0,0.56075 -0.9428,1.52413 -2.09513,2.14082 -1.15229,0.6167 -2.09509,0.7467 -2.09509,0.28894 z M 219.86411,251.51287 c 0,-0.57616 0.73493,-1.04756 1.63317,-1.04756 0.89822,0 1.3418,0.4714 0.98574,1.04756 -0.3561,0.57617 -1.09101,1.04757 -1.63317,1.04757 -0.54216,0 -0.98574,-0.4714 -0.98574,-1.04757 z m -2.69537,-8.88175 c -1.11025,-0.83994 -1.54724,-1.53497 -0.97107,-1.54446 1.55662,-0.0268 4.21718,1.8442 3.55963,2.50175 -0.31345,0.31346 -1.47828,-0.11729 -2.58856,-0.95729 z M 256.694,241.0373 c 0,-1.44039 0.23785,-2.02965 0.52839,-1.30944 0.2907,0.72018 0.2907,1.89869 0,2.61888 -0.29072,0.72021 -0.52839,0.13095 -0.52839,-1.30944 z m 223.54359,-9.28575 c -0.57438,-1.78615 -0.18203,-3.30762 1.40725,-5.45727 1.21202,-1.63934 2.20367,-3.76226 2.20367,-4.71763 0,-1.92007 7.46831,-9.87095 9.27191,-9.87095 1.9291,0 0.18529,2.79312 -2.51091,4.02156 -1.74975,0.79723 -2.48894,1.92152 -2.3519,3.57718 0.10983,1.32799 -1.23867,4.52202 -2.99683,7.09782 -1.75815,2.57579 -3.42845,5.39036 -3.7117,6.25459 -0.37118,1.13246 -0.7375,0.87961 -1.31149,-0.9053 z m -241.65108,-7.21328 c -1.32987,-1.69574 -1.28057,-1.71798 0.65741,-0.29635 1.15233,0.84526 2.29153,1.6702 2.53161,1.83325 0.23993,0.16303 -0.0558,0.29636 -0.65741,0.29636 -0.60164,0 -1.74084,-0.82495 -2.53161,-1.83322 z m -4.58038,-3.85593 c -1.79934,-1.37749 -1.87453,-1.74846 -0.53254,-2.62778 1.88432,-1.23463 3.48468,0.10245 2.9878,2.4966 -0.32577,1.56953 -0.56006,1.58207 -2.45526,0.13125 z m -40.20497,-12.11931 c -1.92062,-2.38993 -2.78357,-4.18675 -2.00857,-4.18215 0.74736,0.003 2.43355,1.89003 3.7471,4.19023 1.31356,2.3002 2.2174,4.18215 2.00853,4.18215 -0.20875,0 -1.89502,-1.88561 -3.74706,-4.19023 z m 29.86905,1.20185 c -2.0832,-2.30188 -3.68421,-9.23047 -1.8745,-8.11204 0.66611,0.41169 1.21109,1.3547 1.21109,2.09563 0,0.74095 0.9428,2.2004 2.0951,3.24322 2.02181,1.82971 2.16844,1.82971 4.19022,0 1.8588,-1.68217 2.09513,-1.70352 2.09513,-0.18916 0,0.93874 -1.35698,2.40852 -3.01551,3.26619 -2.74255,1.41822 -3.16808,1.39075 -4.70153,-0.30374 z m 272.74897,-0.59077 c 0,-0.81621 -0.49082,-1.64765 -1.09074,-1.84762 -1.16322,-0.38775 1.47116,-6.60795 3.26928,-7.71924 0.54908,-0.33935 0.7271,-1.05582 0.39562,-1.59216 -0.33148,-0.53635 0.13215,-0.97518 1.03046,-0.97518 0.89826,0 1.63317,-0.71352 1.63317,-1.58556 0,-2.04533 1.88843,-5.17434 5.49969,-9.1126 1.58442,-1.72792 2.88076,-3.79891 2.88076,-4.60221 0,-0.80329 0.67645,-1.46055 1.50317,-1.46055 0.82672,0 2.76355,-0.47921 4.30407,-1.06491 2.23264,-0.84885 2.55614,-1.35989 1.59442,-2.51868 -1.41786,-1.70845 -0.50456,-6.27372 1.60537,-8.02484 0.8077,-0.67032 1.46855,-1.91817 1.46855,-2.77299 0,-0.85478 1.17852,-2.48119 2.61891,-3.61421 1.44039,-1.13299 2.61888,-2.53087 2.61888,-3.10638 0,-1.78959 2.88901,-4.03937 5.1871,-4.03937 2.12987,0 2.14113,0.0808 0.38448,2.76183 -0.99527,1.51899 -3.36314,3.41092 -5.26193,4.20427 -3.69016,1.54186 -4.14533,2.39748 -2.27192,4.27084 0.87545,0.87549 0.60487,2.11158 -1.04757,4.78527 -1.22538,1.98271 -2.22795,4.26806 -2.22795,5.07861 0,1.59821 -8.78198,10.32591 -10.39018,10.32591 -0.54079,0 -1.71358,0.73027 -2.60617,1.62287 -1.22655,1.22653 -1.34858,2.06204 -0.49967,3.42135 0.88152,1.41149 0.49834,2.75285 -1.78072,6.2338 -1.59716,2.43943 -3.27263,4.43532 -3.7233,4.43532 -0.45071,0 -1.38437,1.8856 -2.07486,4.19026 -1.2221,4.07899 -3.01892,5.68968 -3.01892,2.70617 z"
       id="path892" />
  </g>
</svg>
